<!-- Generated by IcoMoon.io -->
<svg version="1.1" xmlns="http://www.w3.org/2000/svg" width="1024" height="1024" viewBox="0 0 1024 1024">
<g id="icomoon-ignore">
</g>
<path d="M560 100.487c12.301-1.319 26.569 1.219 38.417 4.583 26.803 7.609 48.576 23.91 61.5 47.167 13.431 23.839 15.979 51.705 7.125 77.333-11.251 31.61-35.366 47.516-65.502 62.125l0.375 92.208c21.521 6.115 42.458 13.033 62.003 23.584 44.937 24.27 75.695 65.222 88.58 111.792 13.615 48.828 5.871 100.727-21.542 144.247-25.143 39.445-65.254 68.591-113.246 79.753-62.694 14.588-115.866-1.233-169.754-31.083-23.82 23.731-47.354 47.744-70.582 72 10.381 22.818 13.801 46.75 6.917 70.997-6.732 23.714-24.563 44.032-47.375 56.043-25.555 13.474-54.651 15.927-82.667 8.461-27.809-7.415-51.2-23.467-64.792-47.586-13.371-23.706-14.501-51.482-5.833-76.791 9.866-28.77 29.957-46.515 58.208-59.665 30.412-11.085 55.563-7.424 85.25 2.539 24.714-24.23 47.99-49.685 72.958-73.707-27.445-50.146-36.308-92.868-22.042-148.126-31.067-13.513-61.040-29.252-92.125-42.79-16.614 16.115-36.944 27.136-60.792 30.874-28.437 4.459-58.418-2.773-81.792-18.334-23.155-15.633-38.385-39.458-42.125-65.873-3.835-25.613 3.397-53.827 21-74.042 18.158-20.852 46.338-33.431 74.792-36.209 27.957-2.537 55.845 5.415 77.5 22.083 27.683 21.607 35.684 48.449 39.042 80.458 29.467 16.835 63.212 29.806 93.917 44.833 39.947-43.998 69.148-57.859 127.375-74.583l0.043-91.5c-10.423-3.887-20.834-8.612-29.918-14.833-22.972-15.834-38.067-39.686-41.792-66.083-3.443-26.264 4.531-52.731 22.127-73.5 19.23-22.476 44.932-32.698 74.748-36.375zM555.541 451.072c-68.186 5.167-118.852 61.090-112.875 124.582 5.978 63.509 66.308 110.336 134.417 104.375 67.507-5.931 117.214-61.525 111.292-124.459-5.931-62.933-65.259-109.619-132.834-104.499z"></path>
<path d="M883.75 402.74c2.88-0.133 5.679-0.172 8.546 0.215 8.964 1.21 17.796 5.245 22.733 12.577 5.239 7.78 5.956 18.141 6.673 27.152 3.554 44.604 0.913 91.008 0.9 135.77-0.009 36.553 4.339 86.127-2.944 121.327-2.295 11.068-10.167 16.358-19.601 22.345-3.588 0.405-7.351 0.87-10.974 0.674-8.090-0.422-15.757-3.785-20.992-9.54-5.175-5.696-5.026-17.126-5.483-24.273-3.29-51.307-0.508-104.256-0.457-155.721 0.026-29.244-4.288-85.227 2.313-111.324 2.359-9.337 11.392-14.23 19.285-19.201z"></path>
<path d="M801.131 474.402c9.715 1.668 18.308 5.069 23.966 12.928 8.73 12.126 8.964 130.918 4.595 147.874-2.394 9.271-10.999 13.79-19.162 18.249-9.344-0.521-21.628-1.293-27.87-8.845-9.284-11.217-8.516-137.472-3.23-153.306 3.072-9.199 13.222-13.090 21.7-16.9z"></path>
</svg>
